<svg xmlns="http://www.w3.org/2000/svg" width="100" height="79.058" viewBox="0 0 2645.82 2091.73" shape-rendering="geometricPrecision" text-rendering="geometricPrecision" image-rendering="optimizeQuality" fill-rule="evenodd" clip-rule="evenodd"><g fill="#d4af37"><path d="M212.26 2045.39l-9.37-62.61h-66.55l-9.37 62.61H77.18l55.22-345.08h79.36l55.22 345.08h-54.72zM0 2091.73h858.05v-94.65h21.2c4.6-5.59 7.8-11.83 9.61-18.73 1.81-6.91 3.04-15.61 3.7-26.13l12.32-251.91h151.83v296.77h23.67v94.65h1565.44v-436.56H0v436.56zm910.8 0h115.84v-46.34H910.8v46.34zm-715.3-155.78l-26.13-174.51-26.13 174.51h52.26zm176.48-235.64c26.95 0 47.16 7.23 60.64 21.69 13.47 14.46 20.21 35.66 20.21 63.59v44.87c0 27.93-6.74 49.13-20.21 63.59-13.48 14.46-33.69 21.69-60.64 21.69h-25.63v129.65h-54.23v-345.08h79.86zm-25.63 166.13h25.63c8.87 0 15.53-2.46 19.97-7.39 4.43-4.93 6.65-13.31 6.65-25.14v-51.77c0-11.83-2.22-20.21-6.65-25.14-4.44-4.93-11.1-7.39-19.97-7.39h-25.63v116.83zm260.28-20.7v49.29H532.2v101.06h93.66v49.3H477.97v-345.08h147.89v49.3H532.2v96.13h74.43zm52.75 199.65v-345.08h54.23v147.89h61.62v-147.89h55.21v345.08h-55.21V1897.5h-61.62v147.89h-54.23zm286.42-94.16c-.66 12.49-2.22 22.19-4.69 29.09-2.46 6.9-5.99 12.49-10.6 16.76h70.99v-247.47h-45.84l-9.86 201.62zm285.43 94.16l-9.37-62.61h-66.55l-9.37 62.61h-49.79l55.22-345.08h79.36l55.22 345.08h-54.72zm-16.76-109.44l-26.13-174.51-26.13 174.51h52.26zm227.26 3.45v105.99h-54.23v-345.08h54.23v150.36l70.98-150.36h54.23l-75.42 153.81 75.42 191.27h-55.71l-52.74-137.54-16.76 31.55zm270.64 105.99l-9.37-62.61h-66.55l-9.37 62.61h-49.79l55.22-345.08h79.36l55.22 345.08h-54.72zm-16.76-109.44l-26.13-174.51-26.13 174.51h52.26zm201.13-150.85c0-14.79-2.38-25.06-7.15-30.81-4.77-5.75-11.75-8.63-20.95-8.63-19.06 0-28.59 11.34-28.59 34.02v28.1h-49.79v-25.64c0-27.93 6.73-49.21 20.21-63.84 13.47-14.62 33.36-21.93 59.65-21.93s46.34 7.47 60.14 22.43c13.8 14.95 20.71 36.39 20.71 64.33v8.87c0 18.74-3.13 33.94-9.37 45.6-6.25 11.67-15.78 20.13-28.59 25.39 25.3 11.18 37.96 35.33 37.96 72.47v27.11c0 27.94-6.91 49.38-20.71 64.33-13.8 14.96-33.85 22.43-60.14 22.43s-46.34-7.47-60.14-22.43c-13.81-14.95-20.71-36.39-20.71-64.33v-37.96h51.27v41.41c0 22.68 9.37 34.02 28.1 34.02 9.2 0 16.18-2.88 20.95-8.63 4.77-5.75 7.15-15.86 7.15-30.32v-27.11c0-15.78-2.8-27.03-8.38-33.77-5.59-6.74-14.63-10.11-27.12-10.11h-13.31v-49.29h16.27c10.85 0 18.98-2.8 24.4-8.38 5.43-5.59 8.14-14.96 8.14-28.1v-19.23zm90.71 260.29v-345.08h48.31v218.39l19.72-75.92 44.37-142.47h59.65v345.08h-48.81v-243.03l-22.18 84.79-45.36 158.24h-55.7zm210.5 0v-345.08h54.23v147.89h61.62v-147.89h55.21v345.08h-55.21V1897.5h-61.62v147.89h-54.23zm206.06-262.26c0-27.61 7.07-48.97 21.2-64.09 14.13-15.11 34.51-22.67 61.13-22.67 26.62 0 46.99 7.56 61.13 22.67 14.13 15.12 21.19 36.48 21.19 64.09v179.44c0 27.61-7.06 48.97-21.19 64.09-14.14 15.11-34.51 22.67-61.13 22.67-26.62 0-47-7.56-61.13-22.67-14.13-15.12-21.2-36.48-21.2-64.09v-179.44zm54.23 182.89c0 22.68 9.37 34.02 28.1 34.02 18.73 0 28.1-11.34 28.1-34.02v-186.34c0-22.68-9.37-34.02-28.1-34.02-18.73 0-28.1 11.34-28.1 34.02v186.34z"/><path d="M580.77 1484.27l-40.2-269.25H254.32l-40.19 269.25H0L237.39 0h341.39l237.38 1484.27H580.71h.06zm1831.73-455.92v455.92h233.32V0H2412.5v646.72L2107.17 0h-233.12l324.32 661.51-324.32 822.64h239.53l226.93-591.58 71.99 135.66v.13zM749.8 0l953.25.12 324.33 661.51-324.33 822.63H987.19L749.8.01zm919.25 894.73c37.17-37.18 58.1-87.67 58.1-140.28 0-52.59-20.93-103.09-58.1-140.26L1388.5 333.63l-280.54 280.56c-37.08 37.15-57.94 87.6-57.94 140.11 0 109.52 88.85 198.36 198.38 198.36 17.71 0 35.35-2.38 52.44-7.05-8.62 72.73-33.14 142.83-71.78 205.02l318.94-.01c-38.6-62.13-63.28-132.31-71.81-205.02 17.19 4.74 34.95 7.16 52.75 7.16 52.52 0 102.96-20.9 140.11-58.03zM508.79 1013.55l-112.4-750.57L284 1013.55h224.79z" fill-rule="nonzero"/></g></svg>