<svg width="30" height="30" fill="none" xmlns="http://www.w3.org/2000/svg"><g clip-path="url(#clip0)"><path fill-rule="evenodd" clip-rule="evenodd" d="M21.054 8.185A8.151 8.151 0 0015.3 5.936c-3.913 0-7.237 2.64-8.422 6.195a8.985 8.985 0 000 5.743h.006c1.19 3.55 4.508 6.19 8.421 6.19 2.02 0 3.755-.517 5.099-1.43v-.003a6.943 6.943 0 002.998-4.558H15.3v-5.776h14.148c.177 1.003.26 2.028.26 3.048 0 4.562-1.63 8.42-4.468 11.032l.003.002C22.757 28.672 19.346 30 15.3 30a15.002 15.002 0 01-13.404-8.262 15.013 15.013 0 010-13.47A14.997 14.997 0 0115.3 0a14.417 14.417 0 0110.037 3.902l-4.283 4.283z" fill="#282828"/></g><defs><clipPath id="clip0"><path fill="#fff" d="M0 0h30v30H0z"/></clipPath></defs></svg>