<svg width="30" height="30" fill="none" xmlns="http://www.w3.org/2000/svg"><g clip-path="url(#clip0)"><path d="M9.438 27.188c11.318 0 17.51-9.38 17.51-17.51 0-.264-.006-.534-.018-.797A12.5 12.5 0 0030 5.694c-1.122.5-2.313.825-3.533.967a6.188 6.188 0 002.707-3.404 12.371 12.371 0 01-3.907 1.494 6.163 6.163 0 00-10.493 5.612A17.482 17.482 0 012.091 3.937a6.162 6.162 0 001.905 8.213 6.164 6.164 0 01-2.789-.767v.076a6.152 6.152 0 004.938 6.035 6.117 6.117 0 01-2.776.105 6.167 6.167 0 005.746 4.278A12.344 12.344 0 010 24.423a17.461 17.461 0 009.438 2.765z" fill="#282828"/></g><defs><clipPath id="clip0"><path fill="#fff" d="M0 0h30v30H0z"/></clipPath></defs></svg>