<svg width="40" height="40" fill="none" xmlns="http://www.w3.org/2000/svg"><path d="M31.5 30.813c.688.5 1.813 1.125 1.625 2.625-.188 1.5-2.438 5.312-7.188 5.312S15.313 35 10.188 29.875c-5.124-5.125-8.937-11-8.937-15.813 0-4.812 4.25-7 5.313-7.187 1.062-.187 2.125.938 2.625 1.625l3.624 5.5a2.563 2.563 0 01-.687 3.5c-1.563 1.25-4.125 2.813 1.75 8.625 5.875 5.813 7.375 3.313 8.625 1.75a2.562 2.562 0 013.5-.688l5.5 3.625zM18.75 1.25a20 20 0 0120 20m-20-13.75A13.75 13.75 0 0132.5 21.25m-13.75-6.875a6.875 6.875 0 016.875 6.875" stroke="#202020" stroke-width="2" stroke-miterlimit="10" stroke-linecap="round" stroke-linejoin="round"/></svg>