<svg xmlns="http://www.w3.org/2000/svg" width="50.435" height="50.437" viewBox="0 0 260.23 260.24" shape-rendering="geometricPrecision" text-rendering="geometricPrecision" image-rendering="optimizeQuality" fill-rule="evenodd" clip-rule="evenodd"><path d="M147.46 242.87c52.7 0 95.41-42.72 95.41-95.42s-42.72-95.42-95.41-95.42c-52.7 0-95.42 42.72-95.42 95.42.06 52.67 42.74 95.35 95.42 95.42zm-11.74-66.33a4.34 4.34 0 006.13 0l60.29-60.29a4.34 4.34 0 00-.11-6.13 4.348 4.348 0 00-6.03 0l-57.22 57.22-25.81-25.8a4.331 4.331 0 00-6.13.11 4.348 4.348 0 000 6.03l28.87 28.87zm-88.01-3.07c0-2.39-1.94-4.34-4.34-4.34H13.01c-2.39 0-4.34 1.94-4.34 4.34 0 2.39 1.94 4.34 4.34 4.34h30.36c2.39 0 4.34-1.94 4.34-4.34zm-34.7-47.71h30.36c2.39 0 4.34-1.94 4.34-4.34 0-2.39-1.94-4.34-4.34-4.34H13.01c-2.39 0-4.34 1.94-4.34 4.34 0 2.39 1.94 4.34 4.34 4.34zm30.36 21.69c0-2.39-1.94-4.34-4.34-4.34H4.33c-2.39 0-4.34 1.94-4.34 4.34 0 2.39 1.94 4.34 4.34 4.34h34.7c2.39 0 4.34-1.94 4.34-4.34zm201.74-56.31c-1.29-2.24-2.66-4.44-4.11-6.58l10.71-10.71a4.34 4.34 0 000-6.13l-24.51-24.5a4.34 4.34 0 00-6.13 0l-10.73 10.69a112.123 112.123 0 00-58.55-19.11V8.67h30.36c2.39 0 4.34-1.94 4.34-4.34 0-2.39-1.94-4.34-4.34-4.34h-69.39c-2.39 0-4.34 1.94-4.34 4.34s1.94 4.34 4.34 4.34h30.36v26.17a112.656 112.656 0 00-93.25 56.23H26.02c-2.39 0-4.34 1.94-4.34 4.34 0 2.39 1.94 4.34 4.34 4.34h26.02c.11 0 .21-.06.32-.06 1.56.02 3.01-.81 3.79-2.17C83.74 47.09 147 28.58 197.43 56.17c50.43 27.59 68.94 90.85 41.35 141.28-27.59 50.43-90.85 68.94-141.28 41.35-17.45-9.55-31.8-23.9-41.35-41.35a4.287 4.287 0 00-3.78-2.19c-.11 0-.21-.06-.33-.06H26.02c-2.39 0-4.34 1.94-4.34 4.34 0 2.39 1.94 4.34 4.34 4.34h23.85c31.12 53.91 100.06 72.39 153.97 41.26 53.91-31.12 72.39-100.06 41.26-153.97zm-27.67-32.02l6.7-6.7 18.37 18.37-6.71 6.71c-5.4-6.81-11.56-12.98-18.36-18.38zm-143.7 83.99H60.95c2.26-44.42 37.76-79.92 82.18-82.18v12.79c0 2.39 1.94 4.34 4.34 4.34 2.39 0 4.34-1.94 4.34-4.34V60.93c44.42 2.26 79.92 37.76 82.18 82.18h-17.13c-2.39 0-4.34 1.94-4.34 4.34 0 2.39 1.94 4.34 4.34 4.34h17.13c-2.26 44.42-37.76 79.92-82.18 82.18v-12.79c0-2.39-1.94-4.34-4.34-4.34s-4.34 1.94-4.34 4.34v12.79c-44.42-2.26-79.92-37.76-82.18-82.18h12.79c2.39 0 4.34-1.94 4.34-4.34 0-2.39-1.94-4.34-4.34-4.34z" fill="#d4af37"/></svg>