<svg xmlns="http://www.w3.org/2000/svg" width="38.802" height="57.492" viewBox="0 0 311.47 461.5" shape-rendering="geometricPrecision" text-rendering="geometricPrecision" image-rendering="optimizeQuality" fill-rule="evenodd" clip-rule="evenodd"><path d="M311.47 408.38v45.43c0 4.25-3.44 7.69-7.69 7.69s-7.69-3.44-7.69-7.69v-45.43c0-35.37-28.63-64-64-64-16.74 0-31.93-8.53-40.63-22.81a7.69 7.69 0 012.57-10.57 7.69 7.69 0 0110.57 2.57c5.89 9.66 16.16 15.43 27.49 15.43 43.87 0 79.38 35.5 79.38 79.38zm-134.21-77.09c.9 4.15-1.73 8.25-5.88 9.15-20.24 4.41-40.82 0-57.21-11.19-16.23 17.39-37.66 15.14-34.79 15.14-35.37 0-64 28.62-64 64v45.43c0 4.25-3.44 7.69-7.69 7.69S0 458.07 0 453.82v-45.43c0-43.87 35.5-79.38 79.38-79.38 17.75 0 32.14-14.3 32.14-32.05v-2.03c-33.57-16.05-57.13-49.78-58.57-89.06-13.82-3.32-24.11-15.69-24.11-30.4V135.6c-.42-19.51 2.48-68.39 38.12-102.74 44-42.42 114.57-39.73 166.47-14.74 5.06 2.44 5.83 9.27 1.63 12.81 26.29 6.41 48.96 22.57 63.52 45.7.75 1.19 2.13 3.06 1.77 6.04-.22 1.86-.78 3.43-2.21 4.88-9.37 9.51-14.54 22.1-14.54 35.47v52.46c0 4.25-3.44 7.69-7.69 7.69s-7.69-3.44-7.69-7.69v-52.46c0-15.42 5.27-30.05 14.94-41.8-14.74-21.09-37.75-34.65-63.77-37.44l-13.52-1.45c-7.91-.85-9.46-11.74-2.11-14.76l6.15-2.53C129.84-2.87 44.22 28.14 44.22 135.53v39.95c0 6.1 3.52 11.41 8.65 14.07v-49.86c0-29.68 24.15-53.84 53.83-53.84h98.06c29.68 0 53.84 24.15 53.84 53.83v62.97c0 66.89-65.36 117.69-131.87 98.11-.43 5.49-1.8 10.78-4.03 15.7 12.94 8.89 29.28 12.47 45.41 8.96 4.15-.9 8.25 1.73 9.15 5.88zm-21.53-41.75c48.24 0 87.48-39.24 87.48-87.48v-62.39c0-21.2-17.25-38.45-38.45-38.45H106.7c-21.2 0-38.45 17.25-38.45 38.45v62.38c0 48.24 39.24 87.48 87.48 87.48zm77.87 132.54h-23.07c-4.24 0-7.69 3.44-7.69 7.69s3.44 7.69 7.69 7.69h23.07c4.25 0 7.69-3.44 7.69-7.69s-3.44-7.69-7.69-7.69z" fill="#d4af37"/></svg>