<svg xmlns="http://www.w3.org/2000/svg" width="68" height="50" viewBox="0 0 58.976 43.791" shape-rendering="geometricPrecision" text-rendering="geometricPrecision" image-rendering="optimizeQuality" fill-rule="evenodd" clip-rule="evenodd"><path d="M30.36 26.163c-.249.885-.37 2.335-.354 3.357.015.892.124 2.041.346 2.919.037.146.032.29.12.387-.035.423.712 2.226.91 2.651 1.859 4.014 5.591 6.999 9.986 7.975 5.866 1.302 11.893-1.255 15.012-5.878.917-1.358 1.849-3.15 2.211-4.979.286-1.446.533-3.364.279-4.893-.069-.414-.128-1.221-.255-1.539-.08-.728-.506-1.812-.749-2.437-.26-.668-.711-1.494-1.09-2.087-1.677-2.624-4.026-4.673-6.944-5.792-3.584-1.373-7.081-1.371-10.658-.012-1.435.545-2.948 1.465-3.991 2.374-1.207 1.05-2.016 1.946-2.965 3.4-.701 1.074-1.702 3.266-1.858 4.554zm23.439-1.754c.057.484-.004 8.004.004 9.516.001.29.013.258-.119.469-.277.019-.441-.155-.623-.283l-1.591-1.11c-.163-.112-1.946-1.412-2.101-1.433l-.22-.204c-.001-.607-.044-3.834.024-4.155l3.862-2.698c.205-.147.371-.339.652-.295l.112.193zm-5.189 9.692c-.124.248-.225.372-.588.375h-2.88c-1.048 0-7.199.074-7.699-.055-.555-.144-.849-.294-1.274-.637-.519-.419-.59-.802-.797-1.082-.048-.293-.171-.52-.189-.878-.036-.723-.006-2.35-.006-3.132 0-.854-.043-3.547.009-4.178.252-.482.465-.381 1.064-.381h7.41c1.822-.001 3.536-.323 4.562 1.391.479.8.401 1.529.399 2.601-.003 1.978.043 4.005-.011 5.976zM3.19 10.055c.219-.367.546-.727.82-.998 1.311-1.295 2.901-1.859 4.759-1.798.536.018 1.404.43 1.896-.756.805-1.941 1.145-1.806 1.453-2.36.185-.098.376-.325.585-.492l.52-.381c.321-.231 1.166-.558 1.569-.709.413-.156 1.389-.252 1.905-.243.776.013 1.066.074 1.787.306a6.255 6.255 0 012.6 1.63c.555.584.967 1.2 1.259 1.916.097.24.152.503.33.719.707.855 1.387.031 3.604.564 2.699.65 4.673 3.215 4.709 5.888.014 1.038-.121 1.125-.223 1.866l-2.904-1.066c-.908-.313-1.543-.451-2.37-.712-.214-.067-.413-.077-.63-.142a12.188 12.188 0 00-1.27-.288c-.368-.069-2.388-.488-2.65-.371-.093-.107-.012-.052-.159-.095l-1.194-.118c-.462-.028-.898-.091-1.369-.096-1.007-.01-1.983-.023-2.992-.003l-2.187.109c-.241.011-.288.082-.567.102-.859.062-1.732.259-2.563.399-.325.017-.325.049-.568.097l-1.478.354c-1.971.51-2.447.711-4.196 1.359-.19.071-.293.127-.432.182-.17.067-.73.305-.863.311-.08-.51-.203-.874-.214-1.413a6.957 6.957 0 01.104-1.468c.147-.862.518-1.65.929-2.293zm7.205-7.407c-.096.055-.051.016-.15.113-.042.041-.071.079-.111.123-.84.936-1.111 1.717-1.362 2.042-1.669.013-2.935.227-4.385.997-.564.3-1.146.702-1.583 1.075-.183.157-1.229 1.17-1.25 1.424-.42.235-1.257 2.142-1.391 2.664-.243.951-.142 1.255-.142 2.35.001 1.544-.128 1.644.314 2.981.788 2.381 1.77 1.479 2.787 1.055.375-.156.778-.328 1.155-.498.828-.374 2.772-.977 3.679-1.221.804-.218 2.868-.715 3.709-.788.179-.015.25.019.363-.085l2.556-.223c1.348-.127 4.121.009 5.531.099.045.002.069.003.111.013.126.028-.062-.004.131.046.14.036.234.025.375.033.272.015 1.365.269 1.841.303l1.767.378c.592.16 1.176.284 1.76.472l4.039 1.515c.606.275 1.658.956 2.274-.183.694-1.283.982-3.1.876-4.658-.053-.78-.406-1.968-.699-2.601-.979-2.118-2.37-3.484-4.478-4.449-.547-.25-1.032-.369-1.675-.546-.611-.169-1.413-.131-2.09-.155-.458-.748-.347-.758-1.016-1.633-.44-.574-.811-.924-1.338-1.371-.802-.679-2.023-1.313-3.094-1.607-.164-.045-.412-.128-.544-.146-1.74-.245-2.942-.285-4.713.337a8.822 8.822 0 00-1.812.898c-.332.213-1.337 1.01-1.435 1.246zm7.201 18.925c-1.319.286-2.294.073-3.159-.609-.376-.296-.656-.648-.901-1.145-.301-.613-.3-.961-.344-1.742-.095-.028-1.944-.107-2.078.029-.059.071-.025-.062-.05.126-.119.866.312 2.008.692 2.754.309.608.911 1.292 1.471 1.712l.832.536a5.249 5.249 0 002.21.575c.888.033 1.6-.082 2.38-.394.116-.046.248-.099.34-.143.184-.088.197-.074.304-.199.724-.274 1.593-1.278 1.97-1.888.525-.853 1.015-2.836.736-3.086-.119-.107-1.462-.068-1.793-.055-.043.002-.087.002-.129.013-.221.056-.106.308-.163.68-.151.99-.559 1.747-1.367 2.34-.474.348-.544.306-.951.496zm1.907 4.939c-1.129.386-2.402.457-3.706.392-.712-.035-1.118-.125-1.794-.283-.472-.109-1.179-.295-1.596-.492-.422-.2-.874-.33-1.472-.624a16.893 16.893 0 01-1.341-.741c-.423-.263-1.48-.959-1.853-1.28-.149-.128-.399-.411-.587-.463-.205.17-1.212 1.294-1.3 1.476.224.481 2.641 2.032 3.012 2.232.311.168.538.31.822.456.295.15.579.275.902.431.295.142.659.281.931.393.477.197 1.465.493 1.99.618.344.082.738.15 1.114.214.628.105 1.828.236 2.49.157 1.667-.198 2.265-.214 3.837-.761.228-.08.369-.08.501-.226.36.067 2.618-1.141 3.163-1.484.485-.306 2.491-1.627 2.67-2.03-.045-.093-1.222-1.468-1.331-1.474l-1.399 1.071c-.43.318-1.033.674-1.555.969-.889.5-2.485 1.256-3.498 1.449z" fill="#d4af37"/></svg>