<svg xmlns="http://www.w3.org/2000/svg" width="50.441" height="50.441" viewBox="0 0 955.27 955.27" shape-rendering="geometricPrecision" text-rendering="geometricPrecision" image-rendering="optimizeQuality" fill-rule="evenodd" clip-rule="evenodd"><defs><style>.fil0{fill:#d4af37}</style></defs><g id="Слой_x0020_1"><g id="_2862721722928"><path id="XMLID_1121_" class="fil0" d="M174.06 191.23a18.658 18.658 0 00-19.9-7.01 18.638 18.638 0 00-13.71 16.03l-11.98 111.37c-1.1 10.24 6.31 19.44 16.56 20.54.68.07 1.35.11 2.02.11 9.41 0 17.5-7.1 18.53-16.66l6.81-63.4 37.6 51.49c6.08 8.32 17.75 10.14 26.08 4.07 8.32-6.08 10.14-17.75 4.07-26.07l-66.07-90.47z"/><path id="XMLID_1254_" class="fil0" d="M899.29 141.81H583.87l-26.88-100.3C553.12 27.07 543.86 15 530.91 7.53c-12.94-7.47-28.02-9.46-42.47-5.59L41.5 121.7c-14.44 3.87-26.51 13.13-33.98 26.08-7.47 12.95-9.46 28.03-5.59 42.47l181.56 677.61c3.87 14.44 13.13 26.51 26.08 33.98 8.63 4.98 18.19 7.52 27.89 7.52 4.86 0 9.76-.64 14.57-1.93l128.57-34.45v26.32c0 30.86 25.11 55.97 55.97 55.97h462.7c30.86 0 55.97-25.11 55.97-55.97V632.5c0-10.3-8.35-18.65-18.65-18.65-10.31 0-18.66 8.35-18.66 18.65v266.8c0 10.29-8.37 18.66-18.66 18.66h-462.7c-10.29 0-18.65-8.37-18.65-18.66V197.79c0-10.29 8.37-18.66 18.65-18.66h462.7c10.29 0 18.66 8.37 18.66 18.66v266.8c0 10.31 8.35 18.66 18.66 18.66 10.3 0 18.65-8.35 18.65-18.66v-266.8c0-30.86-25.11-55.97-55.97-55.97zM380.62 529.98c-18.17 18.23-47.17 22.39-69.87 9.28-27.61-15.94-37.1-51.36-21.16-78.96l60.75-105.24 30.27 17.48v157.44zm0-332.2v131.67l-27.76-16.03c-8.93-5.15-20.34-2.1-25.49 6.83l-70.09 121.4c-12.7 22-16.08 47.63-9.5 72.18 6.57 24.54 22.31 45.06 44.31 57.76 15.07 8.7 31.52 12.9 47.78 12.9 14.08 0 28.01-3.16 40.75-9.27v259.14L242.39 871.4c-4.82 1.29-9.84.63-14.16-1.86s-7.4-6.51-8.69-11.33L37.97 180.6c-2.66-9.93 3.26-20.18 13.2-22.85L498.1 37.99c4.81-1.29 9.84-.62 14.16 1.87s7.4 6.51 8.69 11.33l24.29 90.64H436.59c-30.86 0-55.97 25.11-55.97 55.97z"/><path id="XMLID_1258_" class="fil0" d="M576.35 371.9c9.61-3.71 14.39-14.52 10.68-24.13l-40.4-104.47a18.653 18.653 0 00-34.8 0l-40.39 104.47c-3.72 9.61 1.06 20.41 10.67 24.13 2.21.86 4.48 1.27 6.72 1.27 7.49 0 14.54-4.54 17.41-11.94l22.99-59.47 22.99 59.47c3.71 9.61 14.52 14.39 24.13 10.68v-.01z"/><path id="XMLID_1259_" class="fil0" d="M789.26 853.78c2.78 7.19 9.7 11.93 17.4 11.93 7.71 0 14.62-4.75 17.4-11.93l40.4-104.48c3.71-9.61-1.07-20.41-10.68-24.13-9.61-3.71-20.41 1.07-24.13 10.67l-22.99 59.47-22.99-59.47c-3.71-9.61-14.52-14.39-24.13-10.67-9.61 3.71-14.39 14.52-10.67 24.13l40.39 104.48z"/><path id="XMLID_1324_" class="fil0" d="M654.75 690.46c3.64 3.64 8.42 5.47 13.19 5.47s9.55-1.83 13.19-5.47l99.12-99.12c37.08-37.08 37.08-97.43 0-134.52v-.01c-30.27-30.26-75.72-36.41-112.31-16.56-36.6-19.85-82.05-13.71-112.31 16.56-37.09 37.09-37.09 97.44 0 134.52l99.12 99.12zm-72.74-207.25c11.12-11.12 26.04-16.83 41.01-16.83 11.9 0 23.84 3.61 33.91 10.97 6.56 4.8 15.47 4.8 22.02 0 22.75-16.63 54.96-14.11 74.91 5.86 22.54 22.54 22.54 59.21 0 81.75l-85.93 85.93L582 564.96c-22.53-22.54-22.53-59.21.01-81.75z"/><path id="XMLID_1325_" class="fil0" d="M936.61 529.88c-4.9 0-9.72 2-13.18 5.47-3.47 3.47-5.47 8.28-5.47 13.19 0 4.9 2 9.72 5.47 13.19 3.46 3.46 8.28 5.46 13.18 5.46 4.91 0 9.73-2 13.19-5.46 3.47-3.47 5.47-8.29 5.47-13.19 0-4.91-2-9.72-5.47-13.19-3.46-3.47-8.28-5.47-13.19-5.47z"/></g></g></svg>