<svg xmlns="http://www.w3.org/2000/svg" width="97.734" height="46.196" viewBox="0 0 993.43 469.56" shape-rendering="geometricPrecision" text-rendering="geometricPrecision" image-rendering="optimizeQuality" fill-rule="evenodd" clip-rule="evenodd"><g fill="#d4af37"><path d="M758.65 0h-91.23c-15.6 0-30.78 2.13-45.11 6.27-14.35 4.13-27.93 10.3-40.34 18.36-6.48 4.21-20.23 7.99-35.43 10.8-17.55 3.25-37.31 5.33-49.83 5.33-12.51 0-32.27-2.08-49.82-5.33-15.2-2.8-28.96-6.59-35.44-10.79-12.41-8.06-26-14.23-40.34-18.37C356.78 2.13 341.6 0 326 0h-91.23C170.04 0 111.34 26.34 68.84 68.84 26.33 111.35-.01 170.05-.01 234.78s26.34 123.43 68.85 165.94c42.51 42.51 101.21 68.84 165.93 68.84h523.87c64.72 0 123.42-26.34 165.93-68.84 42.51-42.51 68.85-101.21 68.85-165.94s-26.34-123.43-68.85-165.94C882.06 26.33 823.36 0 758.64 0zm-91.23 21.68h91.23c23.68 0 46.51 3.91 67.87 11.1 22.11 7.45 42.63 18.45 60.84 32.3l4.35 3.3-69.82 97.76-4.61-3.5a96.215 96.215 0 00-27.34-14.48c-9.54-3.21-19.8-4.96-30.49-4.96l-72.53-.07-28.53-121.29c1.71-.03 7.69.16 9.04-.18zM362.2 26.35c6.72 1.78 13.27 4.06 19.52 6.82a127.77 127.77 0 0117.9 9.67c8.49 5.51 22.77 9.78 38.03 12.91 22.68 4.64 47.3 6.68 59.05 6.68s36.37-2.05 59.05-6.68c15.26-3.13 29.55-7.4 38.04-12.91 5.72-3.71 11.71-6.95 17.91-9.67 6.25-2.75 12.79-5.04 19.51-6.82l5.59-1.48 32.93 140 89.69.06c20.46-.02 39.04 8.31 52.48 21.75 13.44 13.44 21.78 32.02 21.78 52.49s-8.33 39.04-21.78 52.48c-13.44 13.44-32.01 21.78-52.48 21.78H233.98c-20.46 0-39.04-8.34-52.48-21.78-13.44-13.44-21.78-32.01-21.78-52.48 0-20.48 8.33-39.05 21.78-52.49 13.47-13.44 32.04-21.78 52.5-21.78l89.67-.03 32.93-140 5.59 1.48zm-127.43-4.67c33.4 0 66.88-.39 100.26.18L306.5 143.15l-72.51.05c-10.7.02-20.96 1.76-30.5 4.98-9.91 3.33-19.13 8.27-27.35 14.5l-4.6 3.48-69.83-97.77 4.35-3.3c18.21-13.85 38.72-24.85 60.83-32.29 21.36-7.2 44.19-11.11 67.87-11.11zM21.67 234.77c0-27.91 5.42-54.61 15.24-79.1 10.2-25.41 25.16-48.43 43.75-67.91l4.69-4.93 71.16 99.64-2.17 3.23a96.026 96.026 0 00-12.17 25.51c-2.68 8.79-4.13 18.19-4.13 27.95 0 9.18 1.3 18.06 3.71 26.44a96.124 96.124 0 0010.89 24.39l2.55 4.07-85.98 74.84-3.65-4.76c-14-18.26-25.12-38.87-32.67-61.1a212.434 212.434 0 01-11.23-68.26zm254.44 213.09h-41.34c-27.78 0-54.37-5.36-78.78-15.11-25.35-10.12-48.31-24.98-67.77-43.44l-4.49-4.26 85.82-74.7 3.69 3.03a95.84 95.84 0 0028.52 16.16 95.62 95.62 0 0032.24 5.57h47.76v112.76h-5.64zm204.12 0h-176.8V335.1h182.44v112.76h-5.64zm204.12 0h-176.8V335.1h182.44v112.76h-5.64zm74.29.01h-46.97V335.11h47.76c11.31 0 22.18-1.97 32.24-5.57a96.013 96.013 0 0028.53-16.17l3.68-3.03 85.81 74.7-4.49 4.26c-19.46 18.47-42.42 33.32-67.75 43.44-24.44 9.75-51.03 15.12-78.81 15.12zm161.03-82.89l-81.47-70.92 2.57-4.09a95.695 95.695 0 0010.89-24.36 95.707 95.707 0 003.71-26.45c0-9.77-1.45-19.17-4.13-27.95-2.78-9.13-6.92-17.71-12.16-25.51l-2.17-3.23 71.16-99.64 4.7 4.93c18.59 19.49 33.55 42.51 43.75 67.92 9.82 24.48 15.23 51.18 15.23 79.09 0 23.84-3.96 46.81-11.23 68.26a213.079 213.079 0 01-32.67 61.1l-3.66 4.77-4.51-3.93z"/><path d="M266.77 205.62h56.57v63.97h-16.89V219.3h-22.92v28.78c0 7.31-.84 12.45-2.53 15.41-1.71 2.96-3.57 4.89-5.62 5.81-2.04.92-5.34 1.4-9.88 1.4-2.69 0-6.26-.37-10.68-1.07V257.2c.37 0 1.32.04 2.84.12 1.76.13 3.14.19 4.11.19 2.3 0 3.7-.76 4.23-2.26.51-1.52.78-5.71.78-12.59v-37.03zm68.18 31.2c0-5.62 1.38-11.07 4.15-16.33 2.77-5.28 6.7-9.29 11.77-12.06 5.07-2.77 10.72-4.17 16.99-4.17 9.67 0 17.58 3.14 23.77 9.43 6.19 6.3 9.26 14.23 9.26 23.85 0 9.69-3.12 17.73-9.34 24.09-6.25 6.37-14.1 9.55-23.57 9.55-5.85 0-11.44-1.33-16.76-3.98-5.3-2.65-9.35-6.53-12.12-11.67-2.77-5.12-4.15-11.36-4.15-18.72zm17.38.91c0 6.35 1.5 11.21 4.5 14.58 3.02 3.39 6.72 5.07 11.13 5.07 4.39 0 8.09-1.69 11.07-5.07 2.98-3.37 4.48-8.28 4.48-14.71 0-6.26-1.5-11.09-4.48-14.46-2.98-3.39-6.68-5.07-11.07-5.07-4.41 0-8.11 1.68-11.13 5.07-3 3.37-4.5 8.23-4.5 14.58zm61.11-32.11h43.27v13.68h-26.38v50.29h-16.89v-63.97zm46.51 31.2c0-5.62 1.38-11.07 4.15-16.33 2.77-5.28 6.7-9.29 11.77-12.06 5.07-2.77 10.72-4.17 16.99-4.17 9.67 0 17.58 3.14 23.77 9.43 6.19 6.3 9.26 14.23 9.26 23.85 0 9.69-3.12 17.73-9.34 24.09-6.24 6.37-14.1 9.55-23.57 9.55-5.85 0-11.44-1.33-16.76-3.98-5.3-2.65-9.35-6.53-12.12-11.67-2.77-5.12-4.15-11.36-4.15-18.72zm17.38.91c0 6.35 1.5 11.21 4.5 14.58 3.02 3.39 6.72 5.07 11.13 5.07 4.39 0 8.09-1.69 11.07-5.07 2.98-3.37 4.48-8.28 4.48-14.71 0-6.26-1.5-11.09-4.48-14.46-2.98-3.39-6.68-5.07-11.07-5.07-4.41 0-8.11 1.68-11.13 5.07-3 3.37-4.5 8.23-4.5 14.58zm51.15-32.11h57.81v13.68h-20.46v50.29h-16.89V219.3h-20.46v-13.68zm67.5 0h16.27v40.2l26.01-40.2h16.63v63.97h-16.27v-40.78l-26.38 40.78h-16.27v-63.97zm75.51 0h56.82v63.97h-16.88V219.3h-23.05v50.29h-16.89v-63.97z" fill-rule="nonzero"/></g></svg>